<?xml version="1.0" encoding="UTF-8" standalone="no"?> <svg id="Layer_1" data-name="Layer 1" xmlns="http://www.w3.org/2000/svg" viewBox="0 0 128 128"><defs><style>.cls-1{fill:#2d3e50;}.cls-2{fill:#1d75b8;}</style></defs><title>v</title><path class="cls-1" d="M123.06447,99.13414a5.04134,5.04134,0,0,0-6.79116-2.16644q-5.38436,2.77977-10.81977,5.05692l-9.02028-33.7223L94.613,54.199A157.13464,157.13464,0,0,0,32.9787,59.7869,137.21191,137.21191,0,0,0,15.333,8.14617,5.87109,5.87109,0,0,0,7.1319,6.11095h0A5.89346,5.89346,0,0,0,5.162,14.05237c9.15667,15.986,14.66854,32.58612,16.401,49.42158l.58924-.06063c-.19048.07117-.38135.13949-.57176.2114l1.9558,15.15408.15418-.01989-.14113,30.254Q18.0962,107.729,12.625,105.99852a5.04045,5.04045,0,1,0-3.05409,9.60714q6.96812,2.2152,13.93024,3.74748l-.00213.456,2.21517.01043a142.84682,142.84682,0,0,0,28.68736,2.96511q5.99323,0,11.927-.52751a147.30611,147.30611,0,0,0,54.56925-16.33205A5.04055,5.04055,0,0,0,123.06447,99.13414ZM30.68328,110.49778l.15236-32.661,58.72915-7.57966,9.199,34.39038A128.9973,128.9973,0,0,1,30.68328,110.49778Z"/><path class="cls-2" d="M56.14552,44.573l.49131.12093v4.36635H60.823V44.51564l.87428-.05543a14.16417,14.16417,0,0,0,1.62511-.39681c3.91786-1.22074,6.14513-3.676,6.63519-7.30162.56814-4.2706-.81129-7.54915-3.98844-9.481l-.00377-.00187A31.50716,31.50716,0,0,0,62.724,25.61221l-.30613-.143c-.60468-.27273-1.21694-.54989-1.82792-.86546-.3691-.165-.76342-.34267-1.159-.54107l-.16126-.07432a21.32271,21.32271,0,0,1-2.85715-1.49787c-1.33913-.86166-1.81154-2.73809-1.16905-4.66554.32628-1.00151,1.02418-2.16174,3.53238-2.20838a3.55174,3.55174,0,0,1,3.71253,2.50254,10.36134,10.36134,0,0,1,.35651,1.7051l.16756.8812h6.84177l.02143-.23117A9.73015,9.73015,0,0,0,68.66,14.78139c-1.41219-2.40176-3.6256-3.87379-6.96524-4.62965l-.50267-.114V5.21534H57.02485V9.84058l-1.38576.434a18.34941,18.34941,0,0,0-2.89871,1.03174A9.15217,9.15217,0,0,0,47.758,18.83971a8.89039,8.89039,0,0,0,3.65585,8.026,23.28006,23.28006,0,0,0,4.2,2.24681c.60973.27588,1.23584.56878,1.84305.86292.4636.22109.8894.42455,1.31646.61037a21.46876,21.46876,0,0,1,2.55732,1.33031,3.99126,3.99126,0,0,1,1.37315,4.66177,3.40666,3.40666,0,0,1-3.55,2.39166l-.53792.01889c-.28972-.00062-.56312-.00062-.8138-.02141a4.1114,4.1114,0,0,1-3.967-3.87379l-.20787-1.387H46.8157l-.03025.26455C46.24,39.423,49.30247,42.895,56.14552,44.573Z"/></svg>