<?xml version="1.0" ?><svg id="OBJECT" viewBox="0 0 512 512" xmlns="http://www.w3.org/2000/svg"><defs><style>.cls-1{fill:#bddbff;}.cls-2{fill:#3d9ae2;}.cls-3{fill:#fff;}</style></defs><title/><rect class="cls-1" height="40" rx="10" ry="10" transform="translate(909 969) rotate(180)" width="100" x="404.5" y="464.5"/><path class="cls-2" d="M494.5,512h-80A17.52,17.52,0,0,1,397,494.5v-20A17.52,17.52,0,0,1,414.5,457h80A17.52,17.52,0,0,1,512,474.5v20A17.52,17.52,0,0,1,494.5,512Zm-80-40a2.5,2.5,0,0,0-2.5,2.5v20a2.5,2.5,0,0,0,2.5,2.5h80a2.5,2.5,0,0,0,2.5-2.5v-20a2.5,2.5,0,0,0-2.5-2.5Z"/><rect class="cls-3" height="40" rx="10" ry="10" transform="translate(909 889) rotate(180)" width="100" x="404.5" y="424.5"/><path class="cls-2" d="M494.5,472h-80A17.52,17.52,0,0,1,397,454.5v-20A17.52,17.52,0,0,1,414.5,417h80A17.52,17.52,0,0,1,512,434.5v20A17.52,17.52,0,0,1,494.5,472Zm-80-40a2.5,2.5,0,0,0-2.5,2.5v20a2.5,2.5,0,0,0,2.5,2.5h80a2.5,2.5,0,0,0,2.5-2.5v-20a2.5,2.5,0,0,0-2.5-2.5Z"/><rect class="cls-1" height="40" rx="10" ry="10" transform="translate(512 969) rotate(180)" width="100" x="206" y="464.5"/><path class="cls-2" d="M296,512H216a17.52,17.52,0,0,1-17.5-17.5v-20A17.52,17.52,0,0,1,216,457h80a17.52,17.52,0,0,1,17.5,17.5v20A17.52,17.52,0,0,1,296,512Zm-80-40a2.5,2.5,0,0,0-2.5,2.5v20A2.5,2.5,0,0,0,216,497h80a2.5,2.5,0,0,0,2.5-2.5v-20A2.5,2.5,0,0,0,296,472Z"/><rect class="cls-3" height="40" rx="10" ry="10" transform="translate(512 889) rotate(180)" width="100" x="206" y="424.5"/><path class="cls-2" d="M296,472H216a17.52,17.52,0,0,1-17.5-17.5v-20A17.52,17.52,0,0,1,216,417h80a17.52,17.52,0,0,1,17.5,17.5v20A17.52,17.52,0,0,1,296,472Zm-80-40a2.5,2.5,0,0,0-2.5,2.5v20A2.5,2.5,0,0,0,216,457h80a2.5,2.5,0,0,0,2.5-2.5v-20A2.5,2.5,0,0,0,296,432Z"/><rect class="cls-1" height="40" rx="10" ry="10" transform="translate(512 809) rotate(180)" width="100" x="206" y="384.5"/><path class="cls-2" d="M296,432H216a17.52,17.52,0,0,1-17.5-17.5v-20A17.52,17.52,0,0,1,216,377h80a17.52,17.52,0,0,1,17.5,17.5v20A17.52,17.52,0,0,1,296,432Zm-80-40a2.5,2.5,0,0,0-2.5,2.5v20A2.5,2.5,0,0,0,216,417h80a2.5,2.5,0,0,0,2.5-2.5v-20A2.5,2.5,0,0,0,296,392Z"/><rect class="cls-3" height="40" rx="10" ry="10" transform="translate(512 729) rotate(180)" width="100" x="206" y="344.5"/><path class="cls-2" d="M296,392H216a17.52,17.52,0,0,1-17.5-17.5v-20A17.52,17.52,0,0,1,216,337h80a17.52,17.52,0,0,1,17.5,17.5v20A17.52,17.52,0,0,1,296,392Zm-80-40a2.5,2.5,0,0,0-2.5,2.5v20A2.5,2.5,0,0,0,216,377h80a2.5,2.5,0,0,0,2.5-2.5v-20A2.5,2.5,0,0,0,296,352Z"/><rect class="cls-1" height="40" rx="10" ry="10" transform="translate(115 809) rotate(180)" width="100" x="7.5" y="384.5"/><path class="cls-2" d="M97.5,432h-80A17.52,17.52,0,0,1,0,414.5v-20A17.52,17.52,0,0,1,17.5,377h80A17.52,17.52,0,0,1,115,394.5v20A17.52,17.52,0,0,1,97.5,432Zm-80-40a2.5,2.5,0,0,0-2.5,2.5v20a2.5,2.5,0,0,0,2.5,2.5h80a2.5,2.5,0,0,0,2.5-2.5v-20a2.5,2.5,0,0,0-2.5-2.5Z"/><rect class="cls-3" height="40" rx="10" ry="10" transform="translate(115 729) rotate(180)" width="100" x="7.5" y="344.5"/><path class="cls-2" d="M97.5,392h-80A17.52,17.52,0,0,1,0,374.5v-20A17.52,17.52,0,0,1,17.5,337h80A17.52,17.52,0,0,1,115,354.5v20A17.52,17.52,0,0,1,97.5,392Zm-80-40a2.5,2.5,0,0,0-2.5,2.5v20a2.5,2.5,0,0,0,2.5,2.5h80a2.5,2.5,0,0,0,2.5-2.5v-20a2.5,2.5,0,0,0-2.5-2.5Z"/><rect class="cls-1" height="40" rx="10" ry="10" transform="translate(115 649) rotate(180)" width="100" x="7.5" y="304.5"/><path class="cls-2" d="M97.5,352h-80A17.52,17.52,0,0,1,0,334.5v-20A17.52,17.52,0,0,1,17.5,297h80A17.52,17.52,0,0,1,115,314.5v20A17.52,17.52,0,0,1,97.5,352Zm-80-40a2.5,2.5,0,0,0-2.5,2.5v20a2.5,2.5,0,0,0,2.5,2.5h80a2.5,2.5,0,0,0,2.5-2.5v-20a2.5,2.5,0,0,0-2.5-2.5Z"/><rect class="cls-3" height="40" rx="10" ry="10" transform="translate(115 569) rotate(180)" width="100" x="7.5" y="264.5"/><path class="cls-2" d="M97.5,312h-80A17.52,17.52,0,0,1,0,294.5v-20A17.52,17.52,0,0,1,17.5,257h80A17.52,17.52,0,0,1,115,274.5v20A17.52,17.52,0,0,1,97.5,312Zm-80-40a2.5,2.5,0,0,0-2.5,2.5v20a2.5,2.5,0,0,0,2.5,2.5h80a2.5,2.5,0,0,0,2.5-2.5v-20a2.5,2.5,0,0,0-2.5-2.5Z"/><rect class="cls-1" height="40" rx="10" ry="10" transform="translate(115 969) rotate(180)" width="100" x="7.5" y="464.5"/><path class="cls-2" d="M97.5,512h-80A17.52,17.52,0,0,1,0,494.5v-20A17.52,17.52,0,0,1,17.5,457h80A17.52,17.52,0,0,1,115,474.5v20A17.52,17.52,0,0,1,97.5,512Zm-80-40a2.5,2.5,0,0,0-2.5,2.5v20a2.5,2.5,0,0,0,2.5,2.5h80a2.5,2.5,0,0,0,2.5-2.5v-20a2.5,2.5,0,0,0-2.5-2.5Z"/><rect class="cls-3" height="40" rx="10" ry="10" transform="translate(115 889) rotate(180)" width="100" x="7.5" y="424.5"/><path class="cls-2" d="M97.5,472h-80A17.52,17.52,0,0,1,0,454.5v-20A17.52,17.52,0,0,1,17.5,417h80A17.52,17.52,0,0,1,115,434.5v20A17.52,17.52,0,0,1,97.5,472Zm-80-40a2.5,2.5,0,0,0-2.5,2.5v20a2.5,2.5,0,0,0,2.5,2.5h80a2.5,2.5,0,0,0,2.5-2.5v-20a2.5,2.5,0,0,0-2.5-2.5Z"/><path class="cls-2" d="M375.71,392a7.5,7.5,0,0,1-1.3-14.89l71.4-12.59-12.59-71.39A7.5,7.5,0,0,1,448,290.52l13.9,78.79A7.5,7.5,0,0,1,455.8,378L377,391.89A8.37,8.37,0,0,1,375.71,392Z"/><path class="cls-2" d="M454.49,378.07a7.48,7.48,0,0,1-4.55-1.54L52.94,73a7.5,7.5,0,1,1,9.12-11.92l397,303.5a7.5,7.5,0,0,1-4.57,13.46Z"/><circle class="cls-3" cx="414.5" cy="97.5" r="90"/><path class="cls-2" d="M414.5,195A97.5,97.5,0,1,1,512,97.5,97.61,97.61,0,0,1,414.5,195Zm0-180A82.5,82.5,0,1,0,497,97.5,82.59,82.59,0,0,0,414.5,15Z"/><path class="cls-2" d="M447.67,101.28c-4.06-4.5-11-8.61-21.32-12.56l-4.65-1.78V62.08a83.12,83.12,0,0,1,21.64,5.44,2,2,0,0,0,2.59-1.11l5.7-14.3a2,2,0,0,0-1.09-2.59,88.09,88.09,0,0,0-28.84-6.47v-11a2,2,0,0,0-2-2H409.3a2,2,0,0,0-2,2V43.42c-9.11,1.18-16.52,4.1-22,8.67a24,24,0,0,0-9.13,19.28c0,7.18,2.15,13.31,6.39,18.22s10.69,8.93,19.53,12.33l5.25,1.93v25.76a72.33,72.33,0,0,1-13.61-2.18,77.21,77.21,0,0,1-15.3-5.36,2,2,0,0,0-2.88,1.8v16.48a2,2,0,0,0,1.17,1.82c8.07,3.66,18.36,5.7,30.62,6.07v14.53a2,2,0,0,0,2,2h10.4a2,2,0,0,0,2-2V147.59c9.93-1.33,17.74-4.47,23.23-9.34a25.87,25.87,0,0,0,8.95-20.16A24.33,24.33,0,0,0,447.67,101.28Zm-16.22,18c0,1.83,0,7.17-9.75,9.38V109.07a25.34,25.34,0,0,1,7.22,4.19A7.76,7.76,0,0,1,431.45,119.26ZM407.3,62.61V81.47a21.56,21.56,0,0,1-6.57-4.2,8.43,8.43,0,0,1-2.24-6.06,7.22,7.22,0,0,1,2.61-5.69A14.45,14.45,0,0,1,407.3,62.61Z"/></svg>