<?xml version="1.0" encoding="UTF-8" standalone="no"?> <svg id="Layer_1" data-name="Layer 1" xmlns="http://www.w3.org/2000/svg" viewBox="0 0 128 128"><defs><style>.cls-1{fill:#1d75b8;}.cls-2{fill:#2d3e50;}</style></defs><title>v</title><path class="cls-1" d="M41.152,46.53615V71.89043a17.34026,17.34026,0,0,0,4.74031,11.96679,67.07594,67.07594,0,0,0,17.03486,13.0869l1.06558.57381,1.06549-.57381a66.90624,66.90624,0,0,0,17.04862-13.0869A17.34018,17.34018,0,0,0,86.847,71.89043V46.53615L63.9927,41.52261ZM66.16471,57.41a15.72776,15.72776,0,0,1,1.84425.34152,10.23873,10.23873,0,0,1,1.59828.62842l.43715.20494a.64342.64342,0,0,1,.32784.724c-.21853.56014-.45083,1.13386-.683,1.70759l-.35519.90165-.32784-.19127A7.82675,7.82675,0,0,0,66.24667,60.716a7.012,7.012,0,0,0-3.44244.09563,2.71431,2.71431,0,0,0-1.96715,2.22662,2.52068,2.52068,0,0,0,1.12019,2.71855,20.94359,20.94359,0,0,0,2.84137,1.448A19.38279,19.38279,0,0,1,68.55533,69.172,6.1937,6.1937,0,0,1,71.2738,75.4285a6.31258,6.31258,0,0,1-4.12548,5.15011,11.00919,11.00919,0,0,1-1.33881.45083c-.13657.04094-.27315.082-.42348.1229v3.85233H62.28512V81.32994c-.16392-.02726-.32784-.05461-.49185-.06829-.5874-.082-1.14745-.15025-1.72118-.27323a9.6232,9.6232,0,0,1-3.04639-1.16113.64864.64864,0,0,1-.31417-.888c.1776-.47809.35519-.95627.51911-1.46171l.35519-.99721.8879.47809a9.20368,9.20368,0,0,0,4.91791,1.2295,5.85705,5.85705,0,0,0,1.88518-.38246,3.25966,3.25966,0,0,0,2.09-2.55463,3.4464,3.4464,0,0,0-1.36607-3.21023,11.83109,11.83109,0,0,0-3.06-1.612,14.87881,14.87881,0,0,1-3.948-2.2267,5.57645,5.57645,0,0,1-2.03543-4.43973,6.09162,6.09162,0,0,1,2.32234-4.713,7.826,7.826,0,0,1,3.15562-1.47538l.23221-.05461V53.79h2.95076v3.53808C65.80952,57.35541,65.98711,57.38276,66.16471,57.41Z"/><path class="cls-2" d="M100.28964,13.551H85.48147L83.97875,5.08136a3.25818,3.25818,0,0,0-3.18289-2.56822H47.20414a3.25834,3.25834,0,0,0-3.183,2.56822L42.50485,13.551H27.71028A12.87867,12.87867,0,0,0,14.85559,26.41938V112.6185a12.87867,12.87867,0,0,0,12.85469,12.86836h72.57935a12.87869,12.87869,0,0,0,12.85477-12.86836V26.41938A12.87869,12.87869,0,0,0,100.28964,13.551Zm4.72664,99.06749a4.73986,4.73986,0,0,1-4.72664,4.74023H27.71028a4.75153,4.75153,0,0,1-4.74023-4.74023V26.41938a4.74273,4.74273,0,0,1,4.74023-4.74023H41.05682v.01367l59.23281-.01367a4.7311,4.7311,0,0,1,4.72664,4.74023Z"/></svg>